[Header]
# KeyWord<space>Value<CR>FileType htr
DataType HTRS
FileVersion 1.0
NumSegments 32
NumFrames 4
DataFrameRate 24
EulerRotationOrder XYZ
CalibrationUnits m
RotationUnits Degrees
GlobalAxisofGravity Z
BoneLengthAxis Z
BoneLengthAxis Z
ScaleFactor 1.00
[SegmentNames&Hierarchy]
# ObjectName<tab>ParentObjectName<CR>
pelvis	GLOBAL
spine01	pelvis
spine02	spine01
spine03	spine02
neck	spine03
head	neck
Collar_left	spine03
shoulder_up_left	Collar_left
bicep_up_left	shoulder_up_left
forearm_up_left	bicep_up_left
hand_up_left	forearm_up_left
shoulder_down_left	Collar_left
bicep_down_left	shoulder_down_left
forearm_down_left	bicep_down_left
hand_down_left	forearm_down_left
Collar_right	spine03
shoulder_up_right	Collar_right
bicep_up_right	shoulder_up_right
forearm_up_right	bicep_up_right
hand_up_right	forearm_up_right
shoulder_down_right	Collar_right
bicep_down_right	shoulder_down_right
forearm_down_right	bicep_down_right
hand_down_right	forearm_down_right
hip_left	pelvis
thigh_left	hip_left
shin_left	thigh_left
foot_left	shin_left
hip_right	pelvis
thigh_right	hip_right
shin_right	thigh_right
foot_right	shin_right
[BasePosition]
# ObjectName<tab>Tx<tab>Ty<tab>Tz<tab>Rx<tab>Ry<tab>Rz<tab>BoneLength<CR>
pelvis	0.000000	-0.438872	6.292977	90.000003	-0.000000	0.000000	1.000000
spine01	0.000000	-0.438872	7.970248	90.000003	-0.000000	0.000000	1.000000
spine02	0.000000	-0.438872	10.340697	90.000003	-0.000000	0.000000	1.000000
spine03	0.000000	-0.438872	13.021563	90.000003	-0.000000	0.000000	1.000000
neck	0.000000	-0.438872	16.182161	90.000003	-0.000000	0.000000	1.000000
head	0.000000	-0.438872	17.452044	90.000003	-0.000000	0.000014	1.000000
Collar_left	0.000000	-0.438872	16.182161	114.324943	-109.283163	-3.448282	1.000000
shoulder_up_left	-2.246972	-1.353188	15.416688	89.999955	-101.168646	0.000051	1.000000
bicep_up_left	-4.544489	-1.353188	14.963074	94.597615	-95.170613	-0.305692	1.000000
forearm_up_left	-8.587797	-1.657960	14.597347	85.600206	-93.126604	-0.279561	1.000000
hand_up_left	-12.306015	-1.353188	14.394166	85.300436	-97.657908	-0.750653	1.000000
shoulder_down_left	-2.246972	-1.353188	15.416688	97.171845	-144.053812	-0.627842	1.000000
bicep_down_left	-4.260035	-1.761673	12.646806	95.982825	-137.161086	0.000016	1.000000
forearm_down_left	-6.332484	-2.081106	10.411811	78.293864	-138.751741	0.000033	1.000000
hand_down_left	-8.648752	-1.353187	7.770453	89.999989	-141.340205	0.000017	1.000000
Collar_right	0.000000	-0.438872	16.182161	114.324943	109.283163	3.448282	1.000000
shoulder_up_right	2.246972	-1.353188	15.416688	89.999955	101.168646	-0.000051	1.000000
bicep_up_right	4.544489	-1.353188	14.963074	94.597615	95.170613	0.305692	1.000000
forearm_up_right	8.587797	-1.657960	14.597347	85.600206	93.126604	0.279561	1.000000
hand_up_right	12.306015	-1.353188	14.394166	85.300436	97.657908	0.750653	1.000000
shoulder_down_right	2.246972	-1.353188	15.416688	97.171845	144.053812	0.627842	1.000000
bicep_down_right	4.260035	-1.761673	12.646806	95.982825	137.161086	-0.000016	1.000000
forearm_down_right	6.332484	-2.081106	10.411811	78.293864	138.751741	-0.000033	1.000000
hand_down_right	8.648752	-1.353187	7.770453	89.999989	141.340205	-0.000017	1.000000
hip_left	0.000000	-0.438872	6.292977	-6.241914	-0.000005	89.999996	1.000000
thigh_left	-2.600721	-0.438872	6.008523	-79.303489	-0.000003	90.000003	1.000000
shin_left	-3.000499	-0.438872	3.892051	-90.969439	1.681318	89.968611	1.000000
foot_left	-2.953466	-0.520526	1.111133	-93.081914	-75.718200	93.179995	1.000000
hip_right	0.000000	-0.438872	6.292977	-6.241914	0.000005	-89.999996	1.000000
thigh_right	2.600721	-0.438872	6.008523	-79.303489	0.000003	-90.000003	1.000000
shin_right	3.000499	-0.438872	3.892051	-90.969439	-1.681318	-89.968611	1.000000
foot_right	2.953466	-0.520526	1.111133	-93.081914	75.718200	-93.179995	1.000000
[pelvis]
# Tx<tab>Ty<tab>Tz<tab>Rx<tab>Ry<tab>Rz<tab>BoneScaleFactor<CR>
13	0.000000	0.000000	0.000000	0.000000	-0.000000	0.000000	1.000000
14	0.000000	0.000000	0.000000	0.000000	-0.000000	0.000000	1.000000
15	0.000000	0.000000	0.000000	0.000000	-0.000000	0.000000	1.000000
16	0.000000	0.000000	0.000000	0.000000	-0.000000	0.000000	1.000000
[spine01]
# Tx<tab>Ty<tab>Tz<tab>Rx<tab>Ry<tab>Rz<tab>BoneScaleFactor<CR>
13	0.000000	0.000000	0.000000	-6.024786	-0.000000	0.000000	1.000000
14	0.000000	0.000000	0.000000	-6.847925	-0.000000	0.000000	1.000000
15	0.000000	0.000000	0.000000	-7.683171	-0.000000	0.000000	1.000000
16	0.000000	0.000000	0.000000	-8.522460	-0.000000	0.000000	1.000000
[spine02]
# Tx<tab>Ty<tab>Tz<tab>Rx<tab>Ry<tab>Rz<tab>BoneScaleFactor<CR>
13	0.000000	0.000000	0.000000	-7.390111	-0.000000	0.000000	1.000000
14	0.000000	0.000000	0.000000	-8.400803	-0.000000	0.000000	1.000000
15	0.000000	0.000000	0.000000	-9.426447	-0.000000	0.000000	1.000000
16	0.000000	0.000000	0.000000	-10.457079	-0.000000	0.000000	1.000000
[spine03]
# Tx<tab>Ty<tab>Tz<tab>Rx<tab>Ry<tab>Rz<tab>BoneScaleFactor<CR>
13	0.000000	-0.000001	0.000000	-5.712214	-0.000000	0.000000	1.000000
14	0.000000	0.000000	0.000000	-6.492491	-0.000000	0.000000	1.000000
15	0.000000	0.000000	0.000000	-7.284235	-0.000000	0.000000	1.000000
16	0.000000	0.000000	0.000000	-8.079800	-0.000000	0.000000	1.000000
[neck]
# Tx<tab>Ty<tab>Tz<tab>Rx<tab>Ry<tab>Rz<tab>BoneScaleFactor<CR>
13	0.000000	0.000000	-0.000000	0.000000	-0.000000	0.000000	1.000000
14	0.000000	0.000000	0.000000	0.000000	-0.000000	0.000000	1.000000
15	0.000000	0.000000	0.000000	0.000000	-0.000000	0.000000	1.000000
16	0.000000	0.000000	0.000000	0.000000	-0.000000	0.000000	1.000000
[head]
# Tx<tab>Ty<tab>Tz<tab>Rx<tab>Ry<tab>Rz<tab>BoneScaleFactor<CR>
13	0.000000	0.000000	-0.000000	-0.971120	-0.000000	0.000000	1.000000
14	0.000000	0.000002	0.000000	-1.103543	0.000000	-0.000000	1.000000
15	0.000000	0.000000	0.000000	-1.237892	0.000000	0.000000	1.000000
16	-0.000000	0.000000	0.000000	-1.372885	-0.000000	0.000000	1.000000
[Collar_left]
# Tx<tab>Ty<tab>Tz<tab>Rx<tab>Ry<tab>Rz<tab>BoneScaleFactor<CR>
13	0.000000	0.000000	0.000000	0.000003	-0.000000	0.000002	1.000000
14	0.000000	-0.000000	0.000000	-0.000002	-0.000000	-0.000001	1.000000
15	0.000003	0.000000	0.000000	-0.000001	-0.000000	0.000000	1.000000
16	0.000000	0.000000	0.000000	-0.000001	0.000002	0.000000	1.000000
[shoulder_up_left]
# Tx<tab>Ty<tab>Tz<tab>Rx<tab>Ry<tab>Rz<tab>BoneScaleFactor<CR>
13	0.000001	-0.000000	0.000000	0.000000	-0.000000	-14.213365	1.000000
14	0.000000	0.000000	0.000000	0.000000	-0.000000	-16.173220	1.000000
15	-0.000001	-0.000000	0.000000	0.000000	0.000002	-18.163380	1.000000
16	0.000000	0.000000	0.000001	0.000000	0.000002	-20.163656	1.000000
[bicep_up_left]
# Tx<tab>Ty<tab>Tz<tab>Rx<tab>Ry<tab>Rz<tab>BoneScaleFactor<CR>
13	0.000000	-0.000000	0.000000	0.000000	-0.000000	-0.000001	1.000000
14	0.000001	0.000001	0.000000	0.000000	-0.000000	0.000001	1.000000
15	-0.000001	0.000000	0.000000	0.000000	-0.000002	0.000000	1.000000
16	0.000000	0.000000	0.000000	0.000000	-0.000003	0.000000	1.000000
[forearm_up_left]
# Tx<tab>Ty<tab>Tz<tab>Rx<tab>Ry<tab>Rz<tab>BoneScaleFactor<CR>
13	0.000001	0.000000	0.000000	-0.000000	-0.000002	0.000000	1.000000
14	-0.000001	-0.000001	0.000000	0.000000	-0.000002	0.000000	1.000000
15	0.000001	0.000000	0.000000	-0.000000	-0.000000	-0.000001	1.000000
16	0.000001	0.000001	0.000000	0.000000	0.000002	0.000000	1.000000
[hand_up_left]
# Tx<tab>Ty<tab>Tz<tab>Rx<tab>Ry<tab>Rz<tab>BoneScaleFactor<CR>
13	-0.000002	0.000000	0.000000	-0.872300	-14.693040	-2.614729	1.000000
14	0.000001	0.000001	0.000000	-0.942064	-16.724114	-2.970318	1.000000
15	0.000001	-0.000001	-0.000000	-1.000101	-18.787185	-3.332924	1.000000
16	0.000001	-0.000001	0.000000	-1.045125	-20.861138	-3.699912	1.000000
[shoulder_down_left]
# Tx<tab>Ty<tab>Tz<tab>Rx<tab>Ry<tab>Rz<tab>BoneScaleFactor<CR>
13	0.000000	0.000001	0.000000	-0.000002	-0.000000	0.000002	1.000000
14	0.000001	0.000000	0.000000	-0.000002	0.000002	0.000002	1.000000
15	0.000001	0.000000	0.000000	0.000002	0.000002	0.000000	1.000000
16	0.000000	-0.000001	0.000000	0.000000	-0.000000	0.000002	1.000000
[bicep_down_left]
# Tx<tab>Ty<tab>Tz<tab>Rx<tab>Ry<tab>Rz<tab>BoneScaleFactor<CR>
13	0.000000	0.000000	-0.000001	-13.486344	-11.875997	2.691187	1.000000
14	0.000000	-0.000001	0.000000	-15.445979	-13.462865	3.297628	1.000000
15	0.000000	0.000000	0.000000	-17.468794	-15.053296	3.975309	1.000000
16	0.000000	-0.000000	0.000000	-19.537912	-16.627534	4.720532	1.000000
[forearm_down_left]
# Tx<tab>Ty<tab>Tz<tab>Rx<tab>Ry<tab>Rz<tab>BoneScaleFactor<CR>
13	0.000000	0.000000	-0.000000	-9.498234	-8.307825	-1.015495	1.000000
14	0.000001	0.000001	0.000000	-10.807928	-9.460119	-1.047108	1.000000
15	0.000000	0.000000	0.000000	-12.141748	-10.630432	-1.051908	1.000000
16	0.000000	-0.000000	0.000000	-13.487621	-11.806417	-1.028710	1.000000
[hand_down_left]
# Tx<tab>Ty<tab>Tz<tab>Rx<tab>Ry<tab>Rz<tab>BoneScaleFactor<CR>
13	0.000000	0.000000	0.000000	-0.000001	-0.000000	0.000000	1.000000
14	-0.000001	0.000000	0.000000	-0.000001	-0.000001	-0.000003	1.000000
15	-0.000001	-0.000000	0.000000	0.000001	0.000001	0.000002	1.000000
16	0.000001	0.000000	0.000000	-0.000001	-0.000001	0.000002	1.000000
[Collar_right]
# Tx<tab>Ty<tab>Tz<tab>Rx<tab>Ry<tab>Rz<tab>BoneScaleFactor<CR>
13	0.000000	0.000000	0.000000	0.000003	-0.000000	-0.000002	1.000000
14	0.000000	-0.000000	0.000000	-0.000002	-0.000000	0.000001	1.000000
15	-0.000003	0.000000	0.000000	-0.000001	-0.000000	0.000000	1.000000
16	0.000000	0.000000	0.000000	-0.000001	-0.000002	0.000000	1.000000
[shoulder_up_right]
# Tx<tab>Ty<tab>Tz<tab>Rx<tab>Ry<tab>Rz<tab>BoneScaleFactor<CR>
13	-0.000001	-0.000000	0.000000	2.130802	0.273429	15.961542	1.000000
14	0.000000	0.000000	0.000000	2.428783	0.264203	18.169997	1.000000
15	0.000001	-0.000000	0.000000	2.730857	0.243085	20.413094	1.000000
16	0.000000	0.000000	0.000001	3.033426	0.209959	22.667658	1.000000
[bicep_up_right]
# Tx<tab>Ty<tab>Tz<tab>Rx<tab>Ry<tab>Rz<tab>BoneScaleFactor<CR>
13	0.000002	-0.000000	0.000000	0.000000	0.000002	0.000000	1.000000
14	-0.000001	0.000000	0.000000	-0.000000	0.000002	0.000000	1.000000
15	-0.000001	-0.000001	0.000000	-0.000001	-0.000000	-0.000002	1.000000
16	-0.000001	-0.000001	0.000000	0.000000	0.000002	0.000000	1.000000
[forearm_up_right]
# Tx<tab>Ty<tab>Tz<tab>Rx<tab>Ry<tab>Rz<tab>BoneScaleFactor<CR>
13	0.000001	-0.000001	-0.000000	-12.201460	-8.679529	9.071005	1.000000
14	-0.000001	0.000001	0.000000	-14.016101	-9.719429	10.483024	1.000000
15	-0.000001	0.000000	-0.000000	-15.891627	-10.729699	11.955663	1.000000
16	-0.000001	0.000000	0.000000	-17.809491	-11.696470	13.474287	1.000000
[hand_up_right]
# Tx<tab>Ty<tab>Tz<tab>Rx<tab>Ry<tab>Rz<tab>BoneScaleFactor<CR>
13	-0.000001	0.000000	0.000000	1.412298	20.901219	1.650993	1.000000
14	0.000000	0.000000	-0.000001	1.676916	23.818919	1.943923	1.000000
15	-0.000002	0.000000	0.000000	1.969649	26.783663	2.264495	1.000000
16	0.000001	0.000002	-0.000001	2.291572	29.763017	2.613526	1.000000
[shoulder_down_right]
# Tx<tab>Ty<tab>Tz<tab>Rx<tab>Ry<tab>Rz<tab>BoneScaleFactor<CR>
13	0.000000	0.000001	0.000000	-0.000002	-0.000000	-0.000002	1.000000
14	-0.000001	0.000000	0.000000	-0.000002	-0.000002	-0.000002	1.000000
15	-0.000001	0.000000	0.000000	0.000002	-0.000002	0.000000	1.000000
16	0.000000	-0.000001	0.000000	0.000000	-0.000000	-0.000002	1.000000
[bicep_down_right]
# Tx<tab>Ty<tab>Tz<tab>Rx<tab>Ry<tab>Rz<tab>BoneScaleFactor<CR>
13	0.000000	0.000000	-0.000001	-13.486344	11.875997	-2.691187	1.000000
14	0.000000	-0.000001	0.000000	-15.445979	13.462865	-3.297628	1.000000
15	0.000000	0.000000	0.000000	-17.468794	15.053296	-3.975309	1.000000
16	0.000000	-0.000000	0.000000	-19.537912	16.627534	-4.720532	1.000000
[forearm_down_right]
# Tx<tab>Ty<tab>Tz<tab>Rx<tab>Ry<tab>Rz<tab>BoneScaleFactor<CR>
13	0.000000	0.000000	-0.000000	-9.498234	8.307825	1.015495	1.000000
14	-0.000001	0.000001	0.000000	-10.807928	9.460119	1.047108	1.000000
15	0.000000	0.000000	0.000000	-12.141748	10.630432	1.051908	1.000000
16	0.000000	-0.000000	0.000000	-13.487621	11.806417	1.028710	1.000000
[hand_down_right]
# Tx<tab>Ty<tab>Tz<tab>Rx<tab>Ry<tab>Rz<tab>BoneScaleFactor<CR>
13	0.000000	0.000000	0.000000	-0.000001	-0.000000	0.000000	1.000000
14	0.000001	0.000000	0.000000	-0.000001	0.000001	0.000003	1.000000
15	0.000001	-0.000000	0.000000	0.000001	-0.000001	-0.000002	1.000000
16	-0.000001	0.000000	0.000000	-0.000001	0.000001	-0.000002	1.000000
[hip_left]
# Tx<tab>Ty<tab>Tz<tab>Rx<tab>Ry<tab>Rz<tab>BoneScaleFactor<CR>
13	0.000000	-0.000000	0.000000	0.000000	-0.000000	-0.000000	1.000000
14	0.000000	-0.000000	0.000000	0.000000	-0.000000	-0.000000	1.000000
15	0.000000	-0.000000	0.000000	0.000000	-0.000000	-0.000000	1.000000
16	0.000000	-0.000000	0.000000	0.000000	-0.000000	-0.000000	1.000000
[thigh_left]
# Tx<tab>Ty<tab>Tz<tab>Rx<tab>Ry<tab>Rz<tab>BoneScaleFactor<CR>
13	0.000000	-0.000000	0.000000	0.000001	-0.000000	0.000000	1.000000
14	0.000000	-0.000000	0.000000	0.000001	-0.000000	0.000000	1.000000
15	0.000000	-0.000000	0.000000	0.000001	-0.000000	0.000000	1.000000
16	0.000000	-0.000000	0.000000	0.000001	-0.000000	0.000000	1.000000
[shin_left]
# Tx<tab>Ty<tab>Tz<tab>Rx<tab>Ry<tab>Rz<tab>BoneScaleFactor<CR>
13	0.000000	-0.000000	0.000000	0.000000	0.000000	-0.000000	1.000000
14	0.000000	-0.000000	0.000000	0.000000	0.000000	-0.000000	1.000000
15	0.000000	-0.000000	0.000000	0.000000	0.000000	-0.000000	1.000000
16	0.000000	-0.000000	0.000000	0.000000	0.000000	-0.000000	1.000000
[foot_left]
# Tx<tab>Ty<tab>Tz<tab>Rx<tab>Ry<tab>Rz<tab>BoneScaleFactor<CR>
13	0.000000	-0.000000	0.000000	-0.000000	-0.000000	0.000000	1.000000
14	0.000000	-0.000000	0.000000	-0.000000	-0.000000	0.000000	1.000000
15	0.000000	-0.000000	0.000000	-0.000000	-0.000000	0.000000	1.000000
16	0.000000	-0.000000	0.000000	-0.000000	-0.000000	0.000000	1.000000
[hip_right]
# Tx<tab>Ty<tab>Tz<tab>Rx<tab>Ry<tab>Rz<tab>BoneScaleFactor<CR>
13	-0.000000	-0.000000	0.000000	0.000000	0.000000	0.000000	1.000000
14	-0.000000	-0.000000	0.000000	0.000000	0.000000	0.000000	1.000000
15	-0.000000	-0.000000	0.000000	0.000000	0.000000	0.000000	1.000000
16	-0.000000	-0.000000	0.000000	0.000000	0.000000	0.000000	1.000000
[thigh_right]
# Tx<tab>Ty<tab>Tz<tab>Rx<tab>Ry<tab>Rz<tab>BoneScaleFactor<CR>
13	-0.000000	-0.000000	0.000000	0.000001	0.000000	-0.000000	1.000000
14	-0.000000	-0.000000	0.000000	0.000001	0.000000	-0.000000	1.000000
15	-0.000000	-0.000000	0.000000	0.000001	0.000000	-0.000000	1.000000
16	-0.000000	-0.000000	0.000000	0.000001	0.000000	-0.000000	1.000000
[shin_right]
# Tx<tab>Ty<tab>Tz<tab>Rx<tab>Ry<tab>Rz<tab>BoneScaleFactor<CR>
13	0.000000	-0.000000	0.000000	0.000000	-0.000000	0.000000	1.000000
14	0.000000	-0.000000	0.000000	0.000000	-0.000000	0.000000	1.000000
15	0.000000	-0.000000	0.000000	0.000000	-0.000000	0.000000	1.000000
16	0.000000	-0.000000	0.000000	0.000000	-0.000000	0.000000	1.000000
[foot_right]
# Tx<tab>Ty<tab>Tz<tab>Rx<tab>Ry<tab>Rz<tab>BoneScaleFactor<CR>
13	-0.000000	-0.000000	0.000000	-0.000000	-0.000000	0.000000	1.000000
14	-0.000000	-0.000000	0.000000	-0.000000	-0.000000	0.000000	1.000000
15	-0.000000	-0.000000	0.000000	-0.000000	-0.000000	0.000000	1.000000
16	-0.000000	-0.000000	0.000000	-0.000000	-0.000000	0.000000	1.000000
[EndOfFile]
